<svg width="512" height="512" viewBox="0 0 512 512" fill="none" xmlns="http://www.w3.org/2000/svg">
<path fill-rule="evenodd" clip-rule="evenodd" d="M256.001 139.866C244.161 147.777 230.24 152 216 152C196.904 152 178.591 144.414 165.088 130.912C151.586 117.409 144 99.0956 144 80C144 65.7598 148.223 51.8393 156.134 39.999C164.046 28.1586 175.291 18.9302 188.447 13.4807C201.603 8.0312 216.08 6.60536 230.047 9.38349C244.013 12.1616 256.842 19.019 266.912 29.0883C276.981 39.1577 283.838 51.9869 286.617 65.9535C289.395 79.9202 287.969 94.397 282.519 107.553C277.07 120.71 267.841 131.954 256.001 139.866ZM247.112 33.4377C237.903 27.2844 227.076 24 216 24C201.148 24 186.904 29.9 176.402 40.4021C165.9 50.9041 160 65.1479 160 80C160 91.0758 163.284 101.903 169.438 111.112C175.591 120.321 184.337 127.499 194.57 131.737C204.802 135.976 216.062 137.085 226.925 134.924C237.788 132.763 247.766 127.43 255.598 119.598C263.43 111.766 268.763 101.788 270.924 90.9251C273.085 80.0621 271.976 68.8024 267.737 58.5698C263.499 48.3371 256.321 39.5911 247.112 33.4377ZM376 16H472C478.365 16 484.47 18.5286 488.971 23.0294C493.471 27.5303 496 33.6348 496 40V136C496 142.365 493.471 148.47 488.971 152.971C484.47 157.471 478.365 160 472 160H376C369.635 160 363.53 157.471 359.029 152.971C354.529 148.47 352 142.365 352 136V88C352 85.8783 352.843 83.8434 354.343 82.3431C355.843 80.8429 357.878 80 360 80C362.122 80 364.157 80.8429 365.657 82.3431C367.157 83.8434 368 85.8783 368 88V136C368 138.122 368.843 140.157 370.343 141.657C371.843 143.157 373.878 144 376 144H472C474.122 144 476.157 143.157 477.657 141.657C479.157 140.157 480 138.122 480 136V40C480 37.8783 479.157 35.8434 477.657 34.3431C476.157 32.8429 474.122 32 472 32H376C373.878 32 371.843 32.8429 370.343 34.3431C368.843 35.8434 368 37.8783 368 40V56C368 58.1217 367.157 60.1566 365.657 61.6569C364.157 63.1571 362.122 64 360 64C357.878 64 355.843 63.1571 354.343 61.6569C352.843 60.1566 352 58.1217 352 56V40C352 33.6348 354.529 27.5303 359.029 23.0294C363.53 18.5286 369.635 16 376 16ZM432 64H448C450.122 64 452.157 63.1571 453.657 61.6569C455.157 60.1566 456 58.1217 456 56C456 53.8783 455.157 51.8434 453.657 50.3431C452.157 48.8429 450.122 48 448 48H432C425.635 48 419.53 50.5286 415.029 55.0294C410.529 59.5303 408 65.6348 408 72V80H400C397.878 80 395.843 80.8429 394.343 82.3431C392.843 83.8434 392 85.8783 392 88C392 90.1217 392.843 92.1566 394.343 93.6569C395.843 95.1571 397.878 96 400 96H408V120C408 122.122 408.843 124.157 410.343 125.657C411.843 127.157 413.878 128 416 128C418.122 128 420.157 127.157 421.657 125.657C423.157 124.157 424 122.122 424 120V96H432C434.122 96 436.157 95.1571 437.657 93.6569C439.157 92.1566 440 90.1217 440 88C440 85.8783 439.157 83.8434 437.657 82.3431C436.157 80.8429 434.122 80 432 80H424V72C424 69.8783 424.843 67.8434 426.343 66.3431C427.843 64.8429 429.878 64 432 64ZM296 432H280V353.6C280 351.478 279.157 349.443 277.657 347.943C276.157 346.443 274.122 345.6 272 345.6C269.878 345.6 267.843 346.443 266.343 347.943C264.843 349.443 264 351.478 264 353.6V432H56V272H122.56C124.682 272 126.717 271.157 128.217 269.657C129.717 268.157 130.56 266.122 130.56 264C130.56 261.878 129.717 259.843 128.217 258.343C126.717 256.843 124.682 256 122.56 256H48C45.8783 256 43.8434 256.843 42.3431 258.343C40.8429 259.843 40 261.878 40 264V432H24C21.8783 432 19.8434 432.843 18.3431 434.343C16.8429 435.843 16 437.878 16 440V456C16 466.609 20.2143 476.783 27.7157 484.284C35.2172 491.786 45.3913 496 56 496H264C274.609 496 284.783 491.786 292.284 484.284C299.786 476.783 304 466.609 304 456V440C304 437.878 303.157 435.843 301.657 434.343C300.157 432.843 298.122 432 296 432ZM288 456C288 462.365 285.471 468.47 280.971 472.971C276.47 477.471 270.365 480 264 480H248V472C248 469.878 247.157 467.843 245.657 466.343C244.157 464.843 242.122 464 240 464C237.878 464 235.843 464.843 234.343 466.343C232.843 467.843 232 469.878 232 472V480H88V472C88 469.878 87.1571 467.843 85.6569 466.343C84.1566 464.843 82.1217 464 80 464C77.8783 464 75.8434 464.843 74.3431 466.343C72.8429 467.843 72 469.878 72 472V480H56C49.6348 480 43.5303 477.471 39.0294 472.971C34.5286 468.47 32 462.365 32 456V448H288V456ZM392 336C392 342.329 393.877 348.516 397.393 353.778C400.909 359.041 405.907 363.142 411.754 365.564C417.601 367.986 424.035 368.62 430.243 367.385C436.45 366.15 442.152 363.103 446.627 358.627C451.103 354.152 454.15 348.45 455.385 342.243C456.62 336.035 455.986 329.601 453.564 323.754C451.142 317.907 447.041 312.909 441.778 309.393C436.516 305.877 430.329 304 424 304C415.513 304 407.374 307.371 401.373 313.373C395.371 319.374 392 327.513 392 336ZM440 336C440 339.164 439.062 342.258 437.304 344.889C435.545 347.52 433.047 349.571 430.123 350.782C427.199 351.993 423.982 352.31 420.879 351.693C417.775 351.075 414.924 349.551 412.686 347.314C410.449 345.076 408.925 342.225 408.307 339.121C407.69 336.018 408.007 332.801 409.218 329.877C410.429 326.953 412.48 324.455 415.111 322.696C417.742 320.938 420.836 320 424 320C428.243 320 432.313 321.686 435.314 324.686C438.314 327.687 440 331.757 440 336ZM376 264H472C478.365 264 484.47 266.529 488.971 271.029C493.471 275.53 496 281.635 496 288V336C496 338.122 495.157 340.157 493.657 341.657C492.157 343.157 490.122 344 488 344C485.878 344 483.843 343.157 482.343 341.657C480.843 340.157 480 338.122 480 336V288C480 285.878 479.157 283.843 477.657 282.343C476.157 280.843 474.122 280 472 280H376C373.878 280 371.843 280.843 370.343 282.343C368.843 283.843 368 285.878 368 288V384C368 386.122 368.843 388.157 370.343 389.657C371.843 391.157 373.878 392 376 392H472C474.122 392 476.157 391.157 477.657 389.657C479.157 388.157 480 386.122 480 384V368C480 365.878 480.843 363.843 482.343 362.343C483.843 360.843 485.878 360 488 360C490.122 360 492.157 360.843 493.657 362.343C495.157 363.843 496 365.878 496 368V384C496 390.365 493.471 396.47 488.971 400.971C484.47 405.471 478.365 408 472 408H376C369.635 408 363.53 405.471 359.029 400.971C354.529 396.47 352 390.365 352 384V288C352 281.635 354.529 275.53 359.029 271.029C363.53 266.529 369.635 264 376 264ZM195.76 110.8C197.033 111.589 198.502 112.005 200 112C201.252 111.992 202.485 111.691 203.6 111.12L251.6 87.12C252.91 86.4486 254.01 85.4287 254.778 84.1724C255.546 82.9161 255.952 81.4723 255.952 80C255.952 78.5276 255.546 77.0838 254.778 75.8275C254.01 74.5713 252.91 73.5513 251.6 72.88L203.6 48.88C202.382 48.2663 201.028 47.9741 199.665 48.0312C198.303 48.0883 196.977 48.4927 195.815 49.2061C194.653 49.9194 193.692 50.9181 193.025 52.1072C192.357 53.2962 192.004 54.6362 192 56V104C191.997 105.36 192.341 106.697 192.999 107.887C193.657 109.077 194.607 110.079 195.76 110.8ZM208 68.96L230.08 80L208 91.04V68.96ZM296 184C297.242 184 298.467 183.711 299.578 183.155C300.689 182.6 301.655 181.794 302.4 180.8L326.4 148.8C327.673 147.103 328.22 144.969 327.92 142.869C327.62 140.768 326.497 138.873 324.8 137.6C323.103 136.327 320.969 135.78 318.869 136.08C316.768 136.38 314.873 137.503 313.6 139.2L289.6 171.2C288.327 172.897 287.78 175.031 288.08 177.131C288.38 179.232 289.503 181.127 291.2 182.4C292.585 183.439 294.269 184 296 184ZM316.422 215.155C315.311 214.6 314.345 213.794 313.6 212.8C312.327 211.103 311.78 208.969 312.08 206.869C312.38 204.768 313.503 202.873 315.2 201.6L347.2 177.6C348.897 176.327 351.031 175.78 353.131 176.08C355.232 176.38 357.127 177.503 358.4 179.2C359.673 180.897 360.22 183.031 359.92 185.131C359.62 187.232 358.497 189.127 356.8 190.4L324.8 214.4C323.415 215.439 321.731 216 320 216C318.758 216 317.533 215.711 316.422 215.155ZM392 230.4C391.81 229.339 391.408 228.328 390.817 227.427C390.226 226.526 389.46 225.753 388.563 225.155C387.667 224.558 386.659 224.147 385.6 223.949C384.54 223.75 383.452 223.768 382.4 224L342.4 232C341.349 232.105 340.33 232.416 339.399 232.915C338.469 233.414 337.646 234.092 336.978 234.909C335.627 236.559 334.988 238.678 335.2 240.8C335.412 242.922 336.459 244.872 338.109 246.223C339.759 247.573 341.878 248.212 344 248H345.6L385.6 240C386.661 239.81 387.672 239.408 388.573 238.817C389.474 238.226 390.247 237.46 390.845 236.563C391.443 235.667 391.853 234.659 392.051 233.6C392.25 232.54 392.232 231.452 392 230.4ZM120 232H24C21.8783 232 19.8434 231.157 18.3431 229.657C16.8429 228.157 16 226.122 16 224V96C16 93.8783 16.8429 91.8434 18.3431 90.3431C19.8434 88.8429 21.8783 88 24 88H120C122.122 88 124.157 88.8429 125.657 90.3431C127.157 91.8434 128 93.8783 128 96V224C128 226.122 127.157 228.157 125.657 229.657C124.157 231.157 122.122 232 120 232ZM112 104H32V216H112V104ZM88 120H72C69.8783 120 67.8434 120.843 66.3431 122.343C64.8429 123.843 64 125.878 64 128C64 130.122 64.8429 132.157 66.3431 133.657C67.8434 135.157 69.8783 136 72 136H88C90.1217 136 92.1566 135.157 93.6569 133.657C95.1571 132.157 96 130.122 96 128C96 125.878 95.1571 123.843 93.6569 122.343C92.1566 120.843 90.1217 120 88 120ZM50.3431 154.343C51.8434 152.843 53.8783 152 56 152H88C90.1217 152 92.1566 152.843 93.6569 154.343C95.1571 155.843 96 157.878 96 160C96 162.122 95.1571 164.157 93.6569 165.657C92.1566 167.157 90.1217 168 88 168H56C53.8783 168 51.8434 167.157 50.3431 165.657C48.8429 164.157 48 162.122 48 160C48 157.878 48.8429 155.843 50.3431 154.343ZM56 184C53.8783 184 51.8434 184.843 50.3431 186.343C48.8429 187.843 48 189.878 48 192C48 194.122 48.8429 196.157 50.3431 197.657C51.8434 199.157 53.8783 200 56 200H88C90.1217 200 92.1566 199.157 93.6569 197.657C95.1571 196.157 96 194.122 96 192C96 189.878 95.1571 187.843 93.6569 186.343C92.1566 184.843 90.1217 184 88 184H56ZM286.9 227.241C287.735 227.884 288.435 228.686 288.96 229.6L328.8 298.72C329.365 299.721 329.708 300.833 329.804 301.979C329.901 303.125 329.749 304.278 329.36 305.36C328.969 306.455 328.345 307.452 327.53 308.281C326.714 309.11 325.728 309.751 324.64 310.16L204.64 355.2L219.2 380.56C220.778 383.291 221.802 386.306 222.213 389.433C222.625 392.56 222.416 395.738 221.599 398.784C220.781 401.83 219.372 404.685 217.45 407.186C215.529 409.688 213.133 411.785 210.4 413.36C204.892 416.521 198.355 417.369 192.222 415.72C186.089 414.071 180.86 410.057 177.68 404.56L161.68 376.8L154.72 380.8C149.868 383.641 144.343 385.133 138.72 385.12C135.881 385.142 133.054 384.765 130.32 384C124.996 382.522 120.163 379.65 116.32 375.68L108.32 380.24C104.662 382.32 100.529 383.422 96.3201 383.44C94.214 383.448 92.116 383.179 90.0801 382.64C85.4877 381.414 81.3629 378.851 78.2286 375.278C75.0943 371.704 73.0918 367.281 72.4748 362.568C71.8578 357.855 72.6542 353.064 74.763 348.805C76.8719 344.545 80.1981 341.007 84.3201 338.64L92.3201 334.08C90.4205 327.262 90.8348 320.006 93.4983 313.449C96.1618 306.892 100.924 301.402 107.04 297.84L141.12 278.16L253.12 185.84C254.024 185.097 255.08 184.562 256.214 184.272C257.347 183.981 258.53 183.943 259.68 184.16C260.824 184.361 261.91 184.809 262.863 185.472C263.816 186.135 264.614 186.998 265.2 188L273.2 201.84C273.725 202.754 274.065 203.762 274.201 204.808C274.337 205.853 274.265 206.915 273.99 207.933C273.715 208.951 273.242 209.904 272.599 210.739C271.956 211.574 271.154 212.275 270.24 212.8C269.326 213.325 268.318 213.665 267.272 213.801C266.227 213.936 265.165 213.865 264.147 213.59C263.129 213.315 262.176 212.842 261.341 212.199C260.506 211.555 259.805 210.754 259.28 209.84L256 204.16L155.6 286.96L176.24 322.64C176.944 323.858 177.313 325.241 177.312 326.648C177.311 328.055 176.938 329.437 176.232 330.654C175.526 331.871 174.512 332.88 173.291 333.58C172.071 334.28 170.687 334.646 169.28 334.64C167.87 334.646 166.484 334.279 165.262 333.576C164.04 332.874 163.025 331.861 162.32 330.64L142.32 296L114.64 312C111.135 314.091 108.561 317.442 107.446 321.368C106.331 325.294 106.758 329.498 108.64 333.12L124.64 360.8C126.757 364.462 130.237 367.137 134.32 368.24C136.353 368.786 138.473 368.926 140.559 368.651C142.646 368.377 144.658 367.693 146.48 366.64L160.32 358.64L181.12 346.64H181.76H182.32L310.32 298.64L275.04 237.6C274.515 236.686 274.175 235.677 274.039 234.632C273.904 233.587 273.975 232.525 274.25 231.507C274.525 230.489 274.998 229.536 275.641 228.7C276.284 227.865 277.086 227.165 278 226.64C278.914 226.115 279.923 225.775 280.968 225.639C282.013 225.503 283.075 225.575 284.093 225.85C285.111 226.125 286.064 226.598 286.9 227.241ZM97.0398 367.326C98.0831 367.188 99.0891 366.847 100 366.32L106.96 362.32L98.9601 348.48L92.0001 352.48C91.0819 353.004 90.2769 353.706 89.6315 354.543C88.9861 355.381 88.5132 356.338 88.2401 357.36C87.967 358.376 87.8971 359.436 88.0344 360.48C88.1716 361.523 88.5134 362.529 89.0401 363.44C90.1156 365.264 91.8705 366.587 93.9201 367.12C94.9363 367.393 95.9965 367.463 97.0398 367.326ZM206.286 391.68C206.148 390.637 205.807 389.631 205.28 388.72L189.36 361.36H188.72L175.44 368.96L191.44 396.72C192.509 398.536 194.251 399.857 196.288 400.397C198.325 400.936 200.493 400.65 202.32 399.6C204.158 398.559 205.51 396.834 206.08 394.8C206.353 393.784 206.423 392.724 206.286 391.68Z" fill="url(#paint0_linear_1582_1785)"/>
<defs>
<linearGradient id="paint0_linear_1582_1785" x1="201.052" y1="184.021" x2="201.052" y2="416.544" gradientUnits="userSpaceOnUse">
<stop stop-color="#9077EC"/>
<stop offset="1" stop-color="#4C25BE"/>
</linearGradient>
</defs>
</svg>
