<svg width="32" height="32" viewBox="0 0 32 32" fill="none" xmlns="http://www.w3.org/2000/svg">
<rect width="32" height="32" rx="6" fill="#0B0A31"/>
<path d="M5 25C5.08037 25 5.221 24.86 5.42192 24.58C5.62283 24.3 5.88402 23.83 6.20548 23.17C6.34612 22.87 6.58721 22.36 6.92877 21.64C7.27032 20.92 7.67215 20.07 8.13425 19.09C8.59635 18.11 9.07854 17.09 9.58082 16.03C10.0831 14.95 10.5553 13.92 10.9973 12.94C11.4594 11.96 11.8612 11.1 12.2027 10.36C12.5443 9.62 12.7854 9.1 12.926 8.8C13.2073 8.16 13.358 7.7 13.3781 7.42C13.3982 7.14 13.358 7 13.2575 7H18.5315C18.4511 7 18.421 7.14 18.4411 7.42C18.4612 7.7 18.6018 8.16 18.863 8.8C19.0037 9.1 19.2347 9.62 19.5562 10.36C19.8776 11.08 20.2594 11.93 20.7014 12.91C21.1635 13.89 21.6356 14.91 22.1178 15.97C22.6 17.01 23.0721 18.02 23.5342 19C23.9963 19.98 24.3982 20.84 24.7397 21.58C25.0813 22.32 25.3324 22.85 25.4932 23.17C25.8146 23.83 26.1059 24.3 26.3671 24.58C26.6484 24.86 26.8594 25 27 25H21.4247C21.6256 24.96 21.7863 24.8 21.9068 24.52C22.0475 24.24 22.0274 23.79 21.8466 23.17C21.8064 23.01 21.7361 22.78 21.6356 22.48C21.5352 22.18 21.4447 21.96 21.3644 21.82C21.2438 21.54 21.1233 21.34 21.0027 21.22C20.8822 21.1 20.7215 21.02 20.5205 20.98C20.3397 20.94 20.0785 20.92 19.737 20.92H12.0219C11.6402 20.92 11.3388 20.94 11.1178 20.98C10.8968 21 10.726 21.07 10.6055 21.19C10.505 21.31 10.4046 21.51 10.3041 21.79C10.2237 22.03 10.1434 22.27 10.063 22.51C9.98265 22.75 9.92237 22.97 9.88219 23.17C9.70137 23.83 9.65114 24.3 9.73151 24.58C9.81187 24.86 9.92237 25 10.063 25H5ZM12.8055 18.52H18.863C19.4457 18.52 19.7671 18.47 19.8274 18.37C19.8877 18.27 19.8575 18.05 19.737 17.71C19.4758 17.07 19.1744 16.38 18.8329 15.64C18.4913 14.88 18.1397 14.13 17.7781 13.39C17.4365 12.63 17.095 11.91 16.7534 11.23C16.432 10.53 16.1507 9.92 15.9096 9.4H15.8493C15.4274 10.28 14.9954 11.2 14.5534 12.16C14.1114 13.1 13.6895 13.99 13.2877 14.83C12.9059 15.65 12.5945 16.32 12.3534 16.84C12.1123 17.36 11.9918 17.62 11.9918 17.62C11.8511 17.94 11.8009 18.17 11.8411 18.31C11.9014 18.45 12.2228 18.52 12.8055 18.52Z" fill="white"/>
</svg>
