<svg width="512" height="512" viewBox="0 0 512 512" fill="none" xmlns="http://www.w3.org/2000/svg">
<path d="M116.998 58.5012H136.475V72.753H116.998V58.5012ZM154.432 72.753H173.91V58.5012H154.432V72.753ZM58.5178 72.753H100.941V58.5012H58.5178V72.753ZM410.964 245.247H377.71C375.19 245.247 372.774 244.246 370.992 242.464C369.21 240.682 368.209 238.266 368.209 235.746C368.209 233.226 369.21 230.809 370.992 229.028C372.774 227.246 375.19 226.245 377.71 226.245H427.829V211.993H401.368V192.991H387.116V211.993H377.615C374.496 211.993 371.407 212.607 368.525 213.801C365.644 214.995 363.025 216.744 360.819 218.95C358.614 221.156 356.864 223.774 355.67 226.656C354.477 229.538 353.862 232.627 353.862 235.746C353.862 238.865 354.477 241.954 355.67 244.836C356.864 247.718 358.614 250.336 360.819 252.542C363.025 254.747 365.644 256.497 368.525 257.691C371.407 258.885 374.496 259.499 377.615 259.499H410.869C413.389 259.499 415.806 260.5 417.588 262.282C419.37 264.064 420.371 266.48 420.371 269C420.371 271.52 419.37 273.937 417.588 275.718C415.806 277.5 413.389 278.501 410.869 278.501H360.846V292.753H387.116V309.333H401.368V292.943H410.869C417.169 292.943 423.211 290.441 427.665 285.986C432.12 281.531 434.622 275.49 434.622 269.19C434.622 262.89 432.12 256.849 427.665 252.394C423.211 247.94 417.169 245.437 410.869 245.437L410.964 245.247ZM496 251.185C495.945 276.911 486.157 301.662 468.603 320.468C451.049 339.273 427.029 350.739 401.368 352.563V391.233C401.368 394.271 400.77 397.279 399.607 400.086C398.444 402.893 396.74 405.444 394.592 407.592C392.444 409.74 389.893 411.445 387.086 412.607C384.279 413.77 381.271 414.368 378.233 414.368H196.713V421.542C196.7 437.627 190.305 453.05 178.93 464.424C167.556 475.799 152.133 482.194 136.048 482.207H122.556C106.474 482.182 91.0584 475.782 79.6869 464.411C68.3154 453.039 61.9159 437.623 61.8907 421.542V414.368H39.1829C33.0426 414.368 27.1532 411.932 22.8069 407.595C18.4606 403.258 16.0126 397.373 16 391.233V50.3777C16.0062 47.5641 16.5666 44.7793 17.6491 42.1823C18.7315 39.5852 20.3149 37.2268 22.3089 35.2417C24.3028 33.2566 26.6682 31.6837 29.27 30.6128C31.8718 29.5418 34.6591 28.9938 37.4727 29.0001H379.99C385.656 29.0126 391.087 31.2689 395.093 35.2753C399.099 39.2817 401.356 44.7119 401.368 50.3777V149.808C427.029 151.631 451.049 163.098 468.603 181.903C486.157 200.709 495.945 225.46 496 251.185ZM30.4418 88.0024H387.116V50.3777C387.116 48.4878 386.366 46.6753 385.029 45.339C383.693 44.0026 381.88 43.2518 379.99 43.2518H37.4727C35.5866 43.2643 33.7814 44.019 32.4477 45.3527C31.114 46.6864 30.3592 48.4917 30.3468 50.3777L30.4418 88.0024ZM62.0808 400.116V349.855C62.1051 334.189 68.1843 319.139 79.0474 307.85C89.9106 296.562 104.717 289.91 120.371 289.285C122.087 279.219 127.001 269.973 134.385 262.919H63.1259C61.236 262.919 59.4235 262.169 58.0871 260.832C56.7508 259.496 56 257.683 56 255.793V145.96C56 144.07 56.7508 142.257 58.0871 140.921C59.4235 139.585 61.236 138.834 63.1259 138.834H354.337C356.227 138.834 358.04 139.585 359.376 140.921C360.712 142.257 361.463 144.07 361.463 145.96V154.986C369.773 152.166 378.411 150.426 387.164 149.808V102.302H30.2518V391.233C30.2643 393.593 31.2108 395.853 32.8844 397.517C34.5579 399.182 36.8224 400.116 39.1829 400.116H62.0808ZM347.164 161.114V153.086H70.2043V248.668H174.717C182.318 247.034 189.127 242.84 194.004 236.786C198.882 230.733 201.532 223.187 201.511 215.413V193.846L186.736 207.765L177.235 197.361L203.743 171.993C205.05 170.824 206.741 170.178 208.494 170.178C210.247 170.178 211.938 170.824 213.245 171.993L240.038 197.171L230.299 207.575L215.81 193.846V215.746C215.837 228.124 211.09 240.035 202.556 249H292.817C293.184 230.828 298.42 213.088 307.979 197.629C317.538 182.171 331.07 169.561 347.164 161.114ZM182.461 349.855C182.448 337.549 177.554 325.751 168.853 317.05C160.151 308.348 148.353 303.454 136.048 303.442H133.862V356.221H182.461V349.855ZM119.61 303.584C107.847 304.344 96.812 309.546 88.7409 318.138C80.6698 326.729 76.1663 338.067 76.1425 349.855V356.221H119.61V303.584ZM182.461 421.542V370.473H76.1425V421.542C76.1551 433.847 81.0491 445.645 89.7506 454.347C98.452 463.048 110.25 467.942 122.556 467.955H136.048C148.353 467.942 160.151 463.048 168.853 454.347C177.554 445.645 182.448 433.847 182.461 421.542ZM387.116 391.233V352.563C363.489 350.861 341.193 340.981 324.061 324.621C306.929 308.261 296.033 286.443 293.245 262.919H175.953C173.24 263.412 170.49 263.666 167.734 263.679C160.211 263.681 152.904 266.19 146.967 270.811C141.031 275.431 136.804 281.898 134.955 289.19H136.048C152.133 289.203 167.556 295.598 178.93 306.972C190.305 318.347 196.7 333.77 196.713 349.855V400.116H378.233C380.589 400.116 382.848 399.181 384.514 397.515C386.18 395.849 387.116 393.589 387.116 391.233ZM481.748 251.185C481.758 233.876 476.634 216.953 467.024 202.557C457.414 188.16 443.751 176.937 427.762 170.307C411.774 163.676 394.178 161.936 377.2 165.308C360.222 168.679 344.626 177.009 332.383 189.245C320.14 201.481 311.802 217.073 308.421 234.049C305.041 251.025 306.771 268.622 313.393 284.614C320.015 300.606 331.23 314.276 345.622 323.893C360.013 333.51 376.933 338.644 394.242 338.644C417.438 338.631 439.681 329.414 456.088 313.017C472.494 296.619 481.723 274.381 481.748 251.185Z" fill="url(#paint0_linear_1582_1782)"/>
<defs>
<linearGradient id="paint0_linear_1582_1782" x1="256" y1="29" x2="256" y2="482.207" gradientUnits="userSpaceOnUse">
<stop stop-color="#FFA3CF"/>
<stop offset="1" stop-color="#D04D8F"/>
</linearGradient>
</defs>
</svg>
